<?xml version="1.0" encoding="UTF-8"?>
<svg id="Layer_1" xmlns="http://www.w3.org/2000/svg" version="1.1" viewBox="0 0 144.5 57.4">
  <!-- Generator: Adobe Illustrator 29.5.1, SVG Export Plug-In . SVG Version: 2.1.0 Build 141)  -->
  <defs>
    <style>
      .st0 {
        fill: #231815;
      }
    </style>
  </defs>
  <path class="st0" d="M23.9,16.1l7.4,14.6-2.3,1-5.1-10.4-5.1,10.4-2.3-1,7.4-14.6ZM17.6,38.5v-2.4h12.7v2.4h-12.7Z"/>
  <path class="st0" d="M70.9,15.7l7.4,15-3.3,1.5-4.1-9.1-4.1,9-3.3-1.4,7.4-15ZM63.6,39.3v-3.6h14.7v3.6h-14.7Z"/>
  <path class="st0" d="M118.5,15.1l8,15.9-4.1,1.8-3.9-8.6-3.9,8.6-4.1-1.8,8-15.9ZM110.8,39.7v-4.5h15.6v4.5h-15.6Z"/>
</svg>